<svg width="759" height="66" viewBox="0 0 759 66" fill="none" xmlns="http://www.w3.org/2000/svg">
<path d="M734.727 65.0646C729.354 65.0646 724.589 64.0397 720.435 61.99C716.335 59.8849 713.094 57.0042 710.712 53.3479C708.386 49.6363 707.222 45.3706 707.222 40.551C707.222 35.676 708.33 31.4104 710.546 27.7541C712.762 24.0979 715.837 21.2449 719.77 19.1952C723.703 17.1455 728.218 16.1206 733.315 16.1206C738.356 16.1206 742.76 17.2286 746.527 19.4445C750.294 21.6604 753.202 24.7904 755.252 28.8344C757.357 32.823 758.41 37.4765 758.41 42.7946H713.039V36.7286H755.169L750.682 39.4708C750.516 35.9807 749.685 32.9615 748.189 30.4132C746.693 27.8649 744.671 25.8983 742.123 24.5134C739.574 23.1284 736.611 22.436 733.231 22.436C729.575 22.436 726.39 23.1838 723.675 24.6796C720.961 26.1199 718.828 28.1696 717.277 30.8287C715.781 33.4878 715.033 36.6178 715.033 40.2186C715.033 43.9857 715.892 47.2542 717.609 50.0241C719.327 52.7939 721.736 54.9268 724.839 56.4225C727.941 57.9182 731.597 58.6661 735.807 58.6661C739.63 58.6661 743.369 58.029 747.025 56.7549C750.737 55.4807 754.061 53.7357 756.997 51.5198V57.5028C754.116 59.8295 750.682 61.6853 746.693 63.0702C742.704 64.3998 738.716 65.0646 734.727 65.0646Z" fill="white"/>
<path d="M690.003 0H697.648V63.9844H690.003V0Z" fill="white"/>
<path d="M670.758 63.9843L669.096 46.2847L671.173 40.551L669.096 34.9005L670.758 17.2009H678.569L676.409 40.551L678.569 63.9843H670.758ZM673.75 40.551C672.531 45.426 670.647 49.7194 668.099 53.431C665.606 57.0873 662.559 59.9403 658.958 61.99C655.413 64.0397 651.48 65.0646 647.159 65.0646C642.561 65.0646 638.489 64.0397 634.943 61.99C631.398 59.8849 628.6 57.0042 626.551 53.3479C624.556 49.6363 623.559 45.3706 623.559 40.551C623.559 35.676 624.556 31.4104 626.551 27.7541C628.6 24.0979 631.398 21.2449 634.943 19.1952C638.489 17.1455 642.561 16.1206 647.159 16.1206C651.48 16.1206 655.413 17.1455 658.958 19.1952C662.559 21.2449 665.634 24.0979 668.182 27.7541C670.73 31.4104 672.586 35.676 673.75 40.551ZM631.37 40.551C631.37 44.0965 632.09 47.2265 633.531 49.941C635.026 52.6554 637.048 54.7883 639.597 56.3394C642.2 57.8351 645.137 58.583 648.405 58.583C651.729 58.583 654.776 57.8351 657.546 56.3394C660.371 54.7883 662.864 52.6554 665.024 49.941C667.24 47.2265 669.041 44.0965 670.426 40.551C669.041 37.0056 667.24 33.8756 665.024 31.1611C662.864 28.4466 660.371 26.3415 657.546 24.8458C654.776 23.2946 651.729 22.5191 648.405 22.5191C645.137 22.5191 642.2 23.2946 639.597 24.8458C637.048 26.3415 635.026 28.4466 633.531 31.1611C632.09 33.8756 631.37 37.0056 631.37 40.551Z" fill="white"/>
<path d="M567.062 0H574.707V63.9844H567.062V0ZM593.986 16.1208C598.362 16.1208 602.074 17.0071 605.121 18.7799C608.168 20.4972 610.494 23.0178 612.101 26.3417C613.707 29.6101 614.511 33.5711 614.511 38.2245V63.9844H606.866V39.554C606.866 33.9588 605.592 29.7486 603.043 26.9233C600.495 24.0426 596.728 22.6023 591.742 22.6023C588.363 22.6023 585.371 23.3779 582.768 24.929C580.219 26.4801 578.225 28.6407 576.785 31.4105C575.4 34.125 574.707 37.3104 574.707 40.9667L571.633 38.8062C572.021 34.1527 573.212 30.1364 575.206 26.7571C577.2 23.3779 579.804 20.7742 583.017 18.946C586.286 17.0625 589.942 16.1208 593.986 16.1208Z" fill="white"/>
<path d="M537.299 60.4112H534.059L551.675 17.2009H559.486L539.959 63.9844H532.148L514.448 20.4417H518.021L500.072 63.9844H492.261L472.733 17.2009H480.628L498.327 60.4112H494.92L512.287 17.2009H520.182L537.299 60.4112Z" fill="white"/>
<path d="M408.245 16.5362H425.28L428.355 35.4822V63.9844H411.403V32.9062L408.245 16.5362ZM445.805 15.1235C450.347 15.1235 454.225 16.0376 457.438 17.8657C460.651 19.6939 463.089 22.2698 464.751 25.5937C466.468 28.9176 467.327 32.8508 467.327 37.3934V63.9844H450.375V39.8863C450.375 36.3409 449.461 33.6264 447.633 31.7429C445.86 29.8593 443.284 28.9176 439.905 28.9176C437.578 28.9176 435.529 29.4162 433.756 30.4133C432.038 31.4105 430.709 32.8231 429.767 34.6513C428.825 36.4794 428.355 38.6399 428.355 41.1328L423.119 38.3906C423.784 33.3494 425.197 29.1115 427.357 25.6768C429.518 22.1867 432.177 19.5554 435.335 17.7826C438.492 16.0099 441.982 15.1235 445.805 15.1235Z" fill="white"/>
<path d="M373.255 65.3139C367.161 65.3139 361.843 64.2891 357.3 62.2394C352.758 60.1342 349.212 57.1982 346.664 53.4311C344.115 49.6087 342.841 45.2322 342.841 40.3018C342.841 35.2606 344.115 30.8565 346.664 27.0895C349.212 23.3224 352.758 20.3863 357.3 18.2812C361.843 16.1761 367.161 15.1235 373.255 15.1235C379.293 15.1235 384.584 16.1761 389.126 18.2812C393.724 20.3863 397.297 23.3224 399.846 27.0895C402.394 30.8565 403.668 35.2606 403.668 40.3018C403.668 45.2322 402.394 49.6087 399.846 53.4311C397.297 57.1982 393.724 60.1342 389.126 62.2394C384.584 64.2891 379.293 65.3139 373.255 65.3139ZM373.255 52.7663C376.025 52.7663 378.379 52.2677 380.318 51.2706C382.312 50.2734 383.836 48.8331 384.888 46.9496C385.941 45.066 386.467 42.8501 386.467 40.3018C386.467 37.6427 385.941 35.3991 384.888 33.571C383.836 31.6875 382.312 30.2471 380.318 29.25C378.379 28.2528 376.025 27.7542 373.255 27.7542C370.485 27.7542 368.103 28.2528 366.108 29.25C364.114 30.2471 362.591 31.6875 361.538 33.571C360.486 35.3991 359.959 37.615 359.959 40.2187C359.959 42.8224 360.486 45.066 361.538 46.9496C362.591 48.8331 364.114 50.2734 366.108 51.2706C368.103 52.2677 370.485 52.7663 373.255 52.7663Z" fill="white"/>
<path d="M242.376 16.5362H259.411L262.486 35.4822V63.9844H245.534V32.9062L242.376 16.5362ZM278.856 15.1235C283.232 15.1235 286.944 16.0376 289.991 17.8657C293.038 19.6939 295.364 22.2698 296.971 25.5937C298.578 28.9176 299.381 32.8508 299.381 37.3934V63.9844H282.429V39.8863C282.429 36.3409 281.626 33.6264 280.019 31.7429C278.413 29.8593 276.086 28.9176 273.039 28.9176C270.879 28.9176 268.995 29.4162 267.389 30.4133C265.837 31.4105 264.619 32.8231 263.732 34.6513C262.901 36.4794 262.486 38.6399 262.486 41.1328L257.251 38.3906C257.916 33.3494 259.273 29.1115 261.322 25.6768C263.372 22.1867 265.893 19.5554 268.884 17.7826C271.931 16.0099 275.255 15.1235 278.856 15.1235ZM315.668 15.1235C320.044 15.1235 323.756 16.0376 326.803 17.8657C329.905 19.6939 332.259 22.2698 333.866 25.5937C335.472 28.9176 336.276 32.8508 336.276 37.3934V63.9844H319.324V39.8863C319.324 36.3409 318.521 33.6264 316.914 31.7429C315.308 29.8593 312.981 28.9176 309.934 28.9176C307.774 28.9176 305.89 29.4162 304.283 30.4133C302.732 31.4105 301.514 32.8231 300.627 34.6513C299.796 36.4794 299.381 38.6399 299.381 41.1328L294.146 38.3906C294.81 33.3494 296.14 29.1115 298.134 25.6768C300.184 22.1867 302.732 19.5554 305.779 17.7826C308.826 16.0099 312.122 15.1235 315.668 15.1235Z" fill="white"/>
<path d="M142.157 16.5362H159.192L162.267 35.4822V63.9844H145.315V32.9062L142.157 16.5362ZM178.637 15.1235C183.013 15.1235 186.725 16.0376 189.772 17.8657C192.818 19.6939 195.145 22.2698 196.752 25.5937C198.358 28.9176 199.162 32.8508 199.162 37.3934V63.9844H182.21V39.8863C182.21 36.3409 181.407 33.6264 179.8 31.7429C178.193 29.8593 175.867 28.9176 172.82 28.9176C170.659 28.9176 168.776 29.4162 167.169 30.4133C165.618 31.4105 164.399 32.8231 163.513 34.6513C162.682 36.4794 162.267 38.6399 162.267 41.1328L157.032 38.3906C157.696 33.3494 159.054 29.1115 161.103 25.6768C163.153 22.1867 165.674 19.5554 168.665 17.7826C171.712 16.0099 175.036 15.1235 178.637 15.1235ZM215.449 15.1235C219.825 15.1235 223.537 16.0376 226.583 17.8657C229.686 19.6939 232.04 22.2698 233.647 25.5937C235.253 28.9176 236.056 32.8508 236.056 37.3934V63.9844H219.105V39.8863C219.105 36.3409 218.301 33.6264 216.695 31.7429C215.088 29.8593 212.762 28.9176 209.715 28.9176C207.554 28.9176 205.671 29.4162 204.064 30.4133C202.513 31.4105 201.294 32.8231 200.408 34.6513C199.577 36.4794 199.162 38.6399 199.162 41.1328L193.926 38.3906C194.591 33.3494 195.921 29.1115 197.915 25.6768C199.965 22.1867 202.513 19.5554 205.56 17.7826C208.607 16.0099 211.903 15.1235 215.449 15.1235Z" fill="white"/>
<path d="M107.167 65.3139C101.073 65.3139 95.7549 64.2891 91.2122 62.2394C86.6696 60.1342 83.1242 57.1982 80.5759 53.4311C78.0276 49.6087 76.7534 45.2322 76.7534 40.3018C76.7534 35.2606 78.0276 30.8565 80.5759 27.0895C83.1242 23.3224 86.6696 20.3863 91.2122 18.2812C95.7549 16.1761 101.073 15.1235 107.167 15.1235C113.205 15.1235 118.496 16.1761 123.038 18.2812C127.636 20.3863 131.209 23.3224 133.758 27.0895C136.306 30.8565 137.58 35.2606 137.58 40.3018C137.58 45.2322 136.306 49.6087 133.758 53.4311C131.209 57.1982 127.636 60.1342 123.038 62.2394C118.496 64.2891 113.205 65.3139 107.167 65.3139ZM107.167 52.7663C109.937 52.7663 112.291 52.2677 114.23 51.2706C116.224 50.2734 117.748 48.8331 118.8 46.9496C119.853 45.066 120.379 42.8501 120.379 40.3018C120.379 37.6427 119.853 35.3991 118.8 33.571C117.748 31.6875 116.224 30.2471 114.23 29.25C112.291 28.2528 109.937 27.7542 107.167 27.7542C104.397 27.7542 102.015 28.2528 100.02 29.25C98.0262 30.2471 96.5027 31.6875 95.4502 33.571C94.3976 35.3991 93.8713 37.615 93.8713 40.2187C93.8713 42.8224 94.3976 45.066 95.4502 46.9496C96.5027 48.8331 98.0262 50.2734 100.02 51.2706C102.015 52.2677 104.397 52.7663 107.167 52.7663Z" fill="white"/>
<path d="M71.9617 37.892C71.3524 43.3764 69.4688 48.196 66.3111 52.3508C63.1535 56.4502 58.9986 59.6356 53.8467 61.9069C48.7501 64.1782 42.8779 65.3139 36.2302 65.3139C28.973 65.3139 22.63 63.9566 17.201 61.2421C11.772 58.5277 7.5341 54.7329 4.48722 49.8579C1.49574 44.9829 0 39.3046 0 32.8231C0 26.3415 1.49574 20.6633 4.48722 15.7883C7.5341 10.9133 11.772 7.1185 17.201 4.40401C22.63 1.68952 28.973 0.332275 36.2302 0.332275C42.8779 0.332275 48.7501 1.46793 53.8467 3.73924C58.9986 6.01055 63.1535 9.22362 66.3111 13.3785C69.4688 17.4779 71.3524 22.2698 71.9617 27.7542H54.6776C54.1236 25.0951 53.0434 22.8515 51.4368 21.0233C49.8303 19.1398 47.7252 17.6995 45.1215 16.7023C42.5732 15.7052 39.6094 15.2066 36.2302 15.2066C32.3523 15.2066 29.0007 15.9268 26.1755 17.3671C23.3502 18.752 21.1897 20.7741 19.6939 23.4332C18.1982 26.0369 17.4503 29.1668 17.4503 32.8231C17.4503 36.4793 18.1982 39.637 19.6939 42.2961C21.1897 44.8998 23.3502 46.9218 26.1755 48.3622C29.0007 49.7471 32.3523 50.4396 36.2302 50.4396C39.6094 50.4396 42.5732 49.9687 45.1215 49.0269C47.7252 48.0852 49.8303 46.6725 51.4368 44.789C53.0434 42.9055 54.1236 40.6065 54.6776 37.892H71.9617Z" fill="white"/>
</svg>
